<?xml version="1.0" standalone="no"?>
<!DOCTYPE svg PUBLIC "-//W3C//DTD SVG 20010904//EN"
 "http://www.w3.org/TR/2001/REC-SVG-20010904/DTD/svg10.dtd">
<svg version="1.0" xmlns="http://www.w3.org/2000/svg"
 width="300.000000pt" height="177.000000pt" viewBox="0 0 300.000000 177.000000"
 preserveAspectRatio="xMidYMid meet">
<metadata>
Created by potrace 1.10, written by Peter Selinger 2001-2011
</metadata>
<g transform="translate(0.000000,177.000000) scale(0.100000,-0.100000)"
fill="#000000" stroke="none">
<path d="M883 1643 c86 -3 107 -7 107 -18 0 -12 -21 -15 -115 -15 -155 0 -155
0 -155 -153 0 -76 -4 -118 -12 -127 -11 -12 -10 -12 5 -1 14 11 17 31 17 126
0 145 -2 143 150 147 107 3 115 4 115 23 0 19 -7 20 -110 20 l-110 1 108 -3z"/>
<path d="M1977 1643 c-3 -5 32 -7 76 -5 141 4 156 9 40 10 -61 1 -114 -1 -116
-5z"/>
<path d="M709 1611 l-29 -29 2 -129 2 -128 3 115 c4 145 7 156 46 180 17 11
26 20 19 20 -8 0 -27 -13 -43 -29z"/>
<path d="M1977 1608 c2 -5 55 -8 117 -8 147 0 146 1 146 -146 0 -110 8 -138
36 -127 11 4 14 33 14 128 0 68 -3 126 -7 128 -5 3 -7 -51 -5 -119 3 -107 1
-124 -12 -124 -14 0 -16 17 -16 113 0 155 4 151 -153 157 -69 3 -123 2 -120
-2z"/>
<path d="M1360 1400 c0 -5 -7 -10 -16 -10 -11 0 -14 -5 -10 -16 3 -9 6 -20 6
-25 0 -14 40 -4 51 12 12 20 12 23 -11 37 -12 7 -20 8 -20 2z m23 -36 c-3 -7
-10 -12 -16 -11 -18 3 -27 21 -15 28 17 11 38 -1 31 -17z"/>
<path d="M1467 1395 c-14 -10 -15 -17 -7 -36 8 -19 10 -20 7 -4 -5 26 14 46
29 31 5 -6 8 -20 7 -31 -3 -20 -3 -20 6 0 13 28 13 29 -7 41 -14 9 -22 9 -35
-1z"/>
<path d="M1587 1396 c-14 -11 -15 -18 -7 -37 10 -23 10 -23 6 -2 -2 13 0 25 4
28 15 9 39 -6 33 -21 -3 -8 -10 -11 -17 -7 -7 4 -6 1 1 -7 15 -16 18 -13 27
18 5 16 3 22 -7 22 -9 0 -17 4 -19 9 -1 5 -11 4 -21 -3z"/>
<path d="M108 1203 c17 -2 47 -2 65 0 17 2 3 4 -33 4 -36 0 -50 -2 -32 -4z"/>
<path d="M681 1194 c-43 -31 -51 -70 -49 -241 l2 -158 5 170 c7 186 12 208 64
230 18 8 25 14 17 15 -9 0 -26 -7 -39 -16z"/>
<path d="M807 1195 c17 -7 38 -26 47 -42 8 -15 15 -22 16 -15 0 20 -56 72 -77
72 -11 -1 -6 -6 14 -15z"/>
<path d="M1013 1203 l117 -4 0 -29 c0 -26 -3 -29 -37 -32 l-38 -3 0 -213 -1
-212 3 210 3 210 40 0 c40 0 40 0 40 40 l0 40 -122 -2 -123 -2 118 -3z"/>
<path d="M1340 1192 c19 -9 40 -28 47 -42 9 -17 13 -20 13 -8 0 20 -55 68 -78
68 -9 0 -1 -8 18 -18z"/>
<path d="M1810 1203 l120 -4 0 -29 c0 -28 -2 -30 -40 -30 l-39 0 -3 -207 c-2
-115 0 -212 5 -217 4 -6 7 85 7 202 l0 212 41 0 40 0 -3 38 -3 37 -123 0 -122
1 120 -3z"/>
<path d="M2278 1203 c17 -2 47 -2 65 0 17 2 3 4 -33 4 -36 0 -50 -2 -32 -4z"/>
<path d="M2400 1201 c0 -5 11 -12 25 -15 15 -4 33 -21 44 -44 11 -20 20 -33
21 -29 1 21 -34 68 -60 82 -17 9 -30 11 -30 6z"/>
<path d="M2614 960 c0 -140 2 -198 3 -128 2 71 2 185 0 255 -1 71 -3 13 -3
-127z"/>
<path d="M2711 1196 c-45 -25 -50 -49 -51 -234 0 -186 7 -220 53 -242 l22 -11
-21 18 c-40 34 -44 56 -44 235 0 192 4 208 64 234 17 7 24 13 16 13 -8 0 -26
-6 -39 -13z"/>
<path d="M265 1176 c28 -22 30 -29 33 -105 5 -98 -9 -138 -52 -157 -18 -7 -24
-13 -14 -14 9 0 30 11 45 24 27 24 28 27 28 124 0 92 -2 102 -24 126 -14 14
-29 26 -35 26 -6 0 2 -11 19 -24z"/>
<path d="M424 1095 c0 -60 1 -84 3 -52 2 32 2 81 0 110 -2 29 -3 3 -3 -58z"/>
<path d="M514 1100 c0 -58 1 -81 3 -52 2 28 2 76 0 105 -2 28 -3 5 -3 -53z"/>
<path d="M2042 998 c-1 -114 1 -209 6 -211 4 -3 6 59 4 136 -4 258 -8 285 -10
75z"/>
<path d="M2124 1010 c0 -107 2 -151 3 -97 2 53 2 141 0 195 -1 53 -3 9 -3 -98z"/>
<path d="M2851 1188 c34 -28 39 -55 39 -238 0 -179 0 -181 -25 -205 -13 -14
-31 -25 -40 -25 -8 0 -15 -5 -15 -10 0 -16 56 16 74 42 13 18 16 55 16 201 0
187 -8 227 -47 241 -16 5 -16 5 -2 -6z"/>
<path d="M1536 1134 c-9 -8 -16 -21 -16 -27 0 -7 5 -4 11 6 5 9 19 17 31 17
11 0 27 -8 34 -17 13 -17 14 -17 8 0 -6 15 -33 37 -48 37 -2 0 -12 -7 -20 -16z"/>
<path d="M152 1053 c3 -83 4 -88 26 -91 27 -4 52 14 51 37 0 11 -3 9 -9 -6 -6
-16 -18 -23 -35 -23 -25 0 -25 1 -25 80 0 79 0 80 25 80 17 0 29 -7 35 -22 5
-14 9 -17 9 -7 1 23 -20 39 -51 39 l-29 0 3 -87z"/>
<path d="M1172 960 c-2 -154 1 -189 14 -208 18 -26 74 -58 74 -42 0 5 -6 10
-14 10 -8 0 -24 9 -37 19 -23 19 -24 25 -29 213 l-6 193 -2 -185z"/>
<path d="M2320 960 l0 -180 33 0 c54 0 57 9 57 180 0 171 -3 180 -57 180 l-33
0 0 -180z m75 0 l0 -165 -32 -3 -33 -3 0 171 0 171 33 -3 32 -3 0 -165z"/>
<path d="M874 960 c0 -91 2 -128 3 -82 2 45 2 119 0 165 -1 45 -3 8 -3 -83z"/>
<path d="M1402 962 c-2 -190 -12 -226 -64 -241 -26 -7 -28 -9 -10 -10 31 -1
69 39 77 80 3 19 4 102 3 184 l-4 150 -2 -163z"/>
<path d="M1450 1036 c0 -18 27 -55 81 -113 33 -34 59 -67 59 -74 0 -7 3 -10 6
-6 10 9 -35 76 -64 95 -14 9 -38 37 -54 61 -15 25 -28 41 -28 37z"/>
<path d="M422 818 l2 -113 3 107 4 107 42 4 42 4 -47 1 -48 2 2 -112z"/>
<path d="M514 815 c0 -55 1 -76 3 -47 2 29 2 74 0 100 -2 26 -3 2 -3 -53z"/>
<path d="M154 805 c0 -55 1 -76 3 -47 2 29 2 74 0 100 -2 26 -3 2 -3 -53z"/>
<path d="M1511 833 c-1 -34 20 -63 47 -63 12 0 9 4 -8 13 -17 8 -27 24 -31 47
l-6 35 -2 -32z"/>
<path d="M2469 777 c-8 -19 -28 -39 -49 -49 -19 -10 -28 -18 -19 -18 23 0 69
38 80 68 14 37 5 37 -12 -1z"/>
<path d="M1002 578 c-1 -27 -2 -51 -2 -55 0 -5 8 -8 17 -8 15 0 17 8 14 45 -4
60 -11 64 -13 9 l-1 -44 -7 50 -7 50 -1 -47z"/>
<path d="M1120 605 c-6 -8 -10 -20 -7 -27 4 -8 6 -7 6 5 1 21 21 23 21 2 0 -9
-7 -18 -15 -21 -8 -4 -15 -18 -14 -33 0 -14 3 -19 6 -11 14 43 16 44 23 15 6
-24 7 -20 8 23 0 56 -8 71 -28 47z"/>
<path d="M565 565 c0 -25 5 -45 10 -45 6 0 10 20 10 45 0 25 -4 45 -10 45 -5
0 -10 -20 -10 -45z"/>
<path d="M781 556 c1 -30 4 -39 6 -23 3 19 10 27 21 25 13 -2 17 5 19 27 2 30
2 30 -5 3 -5 -21 -11 -25 -21 -18 -11 6 -12 12 -3 23 9 11 8 14 -3 14 -12 0
-15 -12 -14 -51z"/>
<path d="M911 558 c1 -55 5 -50 11 15 2 20 0 37 -4 37 -4 0 -7 -24 -7 -52z"/>
<path d="M1227 603 c-2 -5 -5 -25 -5 -45 -1 -30 2 -38 16 -37 10 0 12 3 5 6
-7 2 -13 11 -13 18 0 7 6 16 13 18 10 4 10 6 0 6 -7 1 -13 7 -13 15 0 8 6 17
13 19 9 4 9 6 0 6 -6 1 -14 -2 -16 -6z"/>
<path d="M1397 603 c-10 -10 -8 -25 2 -19 5 3 8 -11 6 -31 -1 -22 0 -26 2 -9
3 23 7 26 14 15 7 -12 9 -12 9 1 -1 20 -25 52 -33 43z"/>
<path d="M1608 573 c5 -52 10 -65 23 -58 8 5 8 10 0 18 -6 6 -11 26 -11 44 0
18 -4 33 -8 33 -4 0 -6 -17 -4 -37z"/>
<path d="M1724 583 c1 -18 7 -29 19 -31 11 -2 17 3 16 15 0 10 -3 13 -6 6 -2
-7 -9 -13 -14 -13 -15 0 -10 22 9 36 16 12 16 13 -4 14 -17 0 -21 -6 -20 -27z"/>
<path d="M1928 603 c15 -6 16 -73 1 -73 -5 0 -7 -5 -4 -10 13 -20 25 2 25 46
0 36 -3 44 -17 43 -11 0 -13 -3 -5 -6z"/>
<path d="M2037 602 c6 -4 13 -25 16 -47 4 -40 4 -40 5 8 2 39 -1 47 -15 47
-12 0 -14 -3 -6 -8z"/>
<path d="M2357 591 c-3 -14 -2 -31 2 -39 13 -22 21 1 12 34 -7 29 -7 29 -14 5z"/>
<path d="M2234 568 c4 -16 1 -28 -7 -31 -9 -4 -9 -7 1 -18 10 -11 12 -10 12 3
0 9 4 18 8 20 4 2 2 14 -6 28 l-14 25 6 -27z"/>
<path d="M687 373 c-4 -3 -7 -55 -7 -115 0 -176 26 -201 207 -196 93 3 108 5
111 21 3 15 -8 17 -117 17 -112 0 -122 2 -142 23 -20 20 -21 29 -14 122 3 55
3 108 -1 118 -6 17 -25 23 -37 10z m27 -65 c-1 -30 -6 -63 -12 -74 -9 -15 -11
-3 -12 59 0 59 3 78 13 74 8 -3 12 -23 11 -59z"/>
<path d="M2247 374 c-4 -4 -7 -58 -7 -121 0 -153 0 -153 -155 -153 -108 0
-115 -1 -115 -20 0 -19 7 -20 123 -20 67 0 127 4 134 8 6 4 -37 6 -97 4 -66
-3 -115 0 -126 7 -15 8 7 10 89 11 101 0 109 2 132 25 24 23 25 30 25 140 0
96 3 115 15 115 22 0 22 -225 -1 -260 l-16 -25 21 24 c20 22 21 34 19 145 -3
100 -6 121 -18 124 -9 1 -19 0 -23 -4z"/>
</g>
</svg>
